<svg width="40" height="40" viewBox="0 0 40 40" fill="none" xmlns="http://www.w3.org/2000/svg">
<path d="M20.7934 0.0160816C9.7558 -0.422643 0.452977 8.16905 0.0160784 19.2066C-0.422648 30.2442 8.17091 39.5452 19.2067 39.9839C30.2443 40.4226 39.5453 31.8309 39.9841 20.7934C40.421 9.75577 31.8292 0.452978 20.7934 0.0160816ZM29.2353 29.3138C28.9866 29.7525 28.5022 29.9719 28.0306 29.906C27.8862 29.8859 27.7418 29.8384 27.6065 29.7616C24.9632 28.2572 22.0822 27.2773 19.044 26.8496C16.0058 26.4218 12.9658 26.5699 10.0099 27.2883C9.36826 27.4437 8.72297 27.0507 8.56759 26.409C8.4122 25.7674 8.80523 25.1221 9.44687 24.9667C12.6971 24.177 16.0387 24.0143 19.3767 24.4841C22.7147 24.9539 25.8808 26.0306 28.7892 27.685C29.3614 28.0122 29.5625 28.7398 29.2371 29.3138H29.2353ZM31.864 24.0637C31.4563 24.8168 30.513 25.0984 29.7599 24.6907C26.6669 23.0181 23.3179 21.9194 19.8063 21.4259C16.2947 20.9323 12.7739 21.0657 9.33901 21.8207C9.15256 21.8609 8.96793 21.8682 8.78878 21.8426C8.16542 21.7549 7.63164 21.2906 7.48905 20.638C7.30442 19.8007 7.83455 18.9727 8.67178 18.788C12.4686 17.9526 16.3605 17.8045 20.2395 18.3493C24.1168 18.894 27.8185 20.1079 31.2369 21.9578C31.9919 22.3655 32.2716 23.3069 31.864 24.0619V24.0637ZM34.7778 18.1464C34.3939 18.8849 33.5951 19.267 32.8164 19.1573C32.6061 19.128 32.3996 19.0622 32.2003 18.9599C28.5991 17.0861 24.72 15.8486 20.671 15.2801C16.6219 14.7115 12.5509 14.8322 8.57307 15.6402C7.53841 15.8504 6.53117 15.1813 6.32094 14.1485C6.11072 13.1138 6.77978 12.1066 7.81261 11.8964C12.2182 11.0025 16.7224 10.869 21.2029 11.4979C25.6834 12.1267 29.9756 13.4977 33.9644 15.5725C34.9003 16.0588 35.2641 17.2123 34.7778 18.1482V18.1464Z" fill="#F2F2F2"/>
</svg>
